<?xml version="1.0" encoding="UTF-8" standalone="no"?>
<!-- Created with Inkscape (http://www.inkscape.org/) -->

<svg
   xmlns:dc="http://purl.org/dc/elements/1.1/"
   xmlns:cc="http://creativecommons.org/ns#"
   xmlns:rdf="http://www.w3.org/1999/02/22-rdf-syntax-ns#"
   xmlns:svg="http://www.w3.org/2000/svg"
   xmlns="http://www.w3.org/2000/svg"
   xmlns:xlink="http://www.w3.org/1999/xlink"
   xmlns:sodipodi="http://sodipodi.sourceforge.net/DTD/sodipodi-0.dtd"
   xmlns:inkscape="http://www.inkscape.org/namespaces/inkscape"
   id="svg3394"
   version="1.1"
   inkscape:version="0.91 r13725"
   width="1200"
   height="700"
   viewBox="0 0 1200 700"
   sodipodi:docname="butrf3.svg">
  <metadata
     id="metadata3400">
    <rdf:RDF>
      <cc:Work
         rdf:about="">
        <dc:format>image/svg+xml</dc:format>
        <dc:type
           rdf:resource="http://purl.org/dc/dcmitype/StillImage" />
        <dc:title></dc:title>
        <dc:date>2016</dc:date>
        <dc:creator>
          <cc:Agent>
            <dc:title>Lazur URH</dc:title>
          </cc:Agent>
        </dc:creator>
      </cc:Work>
    </rdf:RDF>
  </metadata>
  <defs
     id="defs3398">
    <linearGradient
       inkscape:collect="always"
       id="linearGradient11500">
      <stop
         style="stop-color:#ffffff;stop-opacity:1"
         offset="0"
         id="stop11502" />
      <stop
         id="stop11504"
         offset="0.0788865536"
         style="stop-color:#000000;stop-opacity:1" />
      <stop
         style="stop-color:#ffffff;stop-opacity:1"
         offset="0.0788865536"
         id="stop11506" />
      <stop
         id="stop11508"
         offset="0.229752481"
         style="stop-color:#000000;stop-opacity:1" />
      <stop
         style="stop-color:#ffffff;stop-opacity:1"
         offset="0.229752481"
         id="stop11510" />
      <stop
         id="stop11512"
         offset="0.5712434053"
         style="stop-color:#000000;stop-opacity:1" />
      <stop
         style="stop-color:#ffffff;stop-opacity:1"
         offset="0.5712434053"
         id="stop11514" />
      <stop
         id="stop11516"
         offset="0.6823502183"
         style="stop-color:#000000;stop-opacity:1" />
      <stop
         id="stop11518"
         offset="0.6823502183"
         style="stop-color:#1f1f1f;stop-opacity:1;" />
      <stop
         style="stop-color:#ffffff;stop-opacity:1"
         offset="0.7844019532"
         id="stop11520" />
      <stop
         id="stop11522"
         offset="0.7844019532"
         style="stop-color:#7f7f7f;stop-opacity:1;" />
      <stop
         style="stop-color:#000000;stop-opacity:1"
         offset="1"
         id="stop11524" />
    </linearGradient>
    <linearGradient
       id="linearGradient5419"
       inkscape:collect="always">
      <stop
         id="stop5421"
         offset="0"
         style="stop-color:#ffffff;stop-opacity:1" />
      <stop
         id="stop5431"
         offset="1"
         style="stop-color:#000000;stop-opacity:1" />
    </linearGradient>
    <mask
       maskUnits="userSpaceOnUse"
       id="mask7163">
      <use
         height="100%"
         width="100%"
         transform="matrix(0,1,-1,0,1500.000000000001,0)"
         id="use7165"
         xlink:href="#path6981"
         y="0"
         x="0" />
    </mask>
    <mask
       maskUnits="userSpaceOnUse"
       id="mask7177">
      <use
         x="0"
         y="0"
         xlink:href="#path6954"
         id="use7179"
         transform="matrix(0,1,-1,0,1400.000000000001,99.99999999999977)"
         width="100%"
         height="100%" />
    </mask>
    <mask
       maskUnits="userSpaceOnUse"
       id="mask9255">
      <g
         transform="matrix(0.0714285714285714,0,0,0.0714285714285714,-578.4869915597498,1467.948527003527)"
         id="g9257">
        <use
           height="100%"
           width="100%"
           transform="matrix(14,0,0,14,3898.817881836493,-20551.27937804938)"
           id="use9259"
           xlink:href="#path6717"
           y="0"
           x="0" />
        <use
           height="100%"
           width="100%"
           transform="matrix(14,0,0,14,1098.817881836489,-20551.27937804938)"
           id="use9261"
           xlink:href="#path6954"
           y="0"
           x="0"
           mask="url(#mask7177)" />
      </g>
    </mask>
    <mask
       maskUnits="userSpaceOnUse"
       id="mask9273">
      <g
         transform="matrix(0,0.0714285714285714,-0.0714285714285714,0,-367.948527003526,21.51300844025059)"
         id="g9275">
        <use
           height="100%"
           width="100%"
           transform="matrix(14,0,0,14,3898.817881836493,-20551.27937804938)"
           id="use9277"
           xlink:href="#path6717"
           y="0"
           x="0" />
        <use
           height="100%"
           width="100%"
           transform="matrix(14,0,0,14,1098.817881836489,-20551.27937804938)"
           id="use9279"
           xlink:href="#path6954"
           y="0"
           x="0"
           mask="url(#mask7177)" />
      </g>
    </mask>
    <mask
       maskUnits="userSpaceOnUse"
       id="mask9316">
      <g
         transform="matrix(0,1,1,0,16298.09739226997,-19138.68210706479)"
         id="g9318">
        <path
           inkscape:connector-curvature="0"
           id="path9320"
           d="m 11938.81786409729,-8535.279499945012 1400,0 0,1399.999999999994 -1400,0 z"
           style="color:#000000;clip-rule:nonzero;display:inline;overflow:visible;visibility:visible;opacity:1;isolation:auto;mix-blend-mode:normal;color-interpolation:sRGB;color-interpolation-filters:linearRGB;solid-color:#000000;solid-opacity:1;fill:#000000;fill-opacity:1;fill-rule:nonzero;stroke:none;stroke-width:6;stroke-linecap:round;stroke-linejoin:round;stroke-miterlimit:4;stroke-dasharray:none;stroke-dashoffset:0;stroke-opacity:1;marker:none;color-rendering:auto;image-rendering:auto;shape-rendering:auto;text-rendering:auto;enable-background:accumulate" />
        <use
           x="0"
           y="0"
           xlink:href="#path6981"
           id="use9322"
           transform="matrix(14,0,0,14,2138.817864097278,-18335.27949994502)"
           width="100%"
           height="100%"
           mask="url(#mask7163)" />
      </g>
    </mask>
    <mask
       maskUnits="userSpaceOnUse"
       id="mask9330">
      <g
         transform="matrix(-1,0,0,1,18177.63577050335,1320.000318689822)"
         id="g9332">
        <path
           inkscape:connector-curvature="0"
           id="path9334"
           d="m 11938.81786409729,-8535.279499945012 1400,0 0,1399.999999999994 -1400,0 z"
           style="color:#000000;clip-rule:nonzero;display:inline;overflow:visible;visibility:visible;opacity:1;isolation:auto;mix-blend-mode:normal;color-interpolation:sRGB;color-interpolation-filters:linearRGB;solid-color:#000000;solid-opacity:1;fill:#000000;fill-opacity:1;fill-rule:nonzero;stroke:none;stroke-width:6;stroke-linecap:round;stroke-linejoin:round;stroke-miterlimit:4;stroke-dasharray:none;stroke-dashoffset:0;stroke-opacity:1;marker:none;color-rendering:auto;image-rendering:auto;shape-rendering:auto;text-rendering:auto;enable-background:accumulate" />
        <use
           x="0"
           y="0"
           xlink:href="#path6981"
           id="use9336"
           transform="matrix(14,0,0,14,2138.817864097278,-18335.27949994502)"
           width="100%"
           height="100%"
           mask="url(#mask7163)" />
      </g>
    </mask>
    <mask
       maskUnits="userSpaceOnUse"
       id="mask9350">
      <g
         id="g9352"
         transform="translate(-5751.999964803354,1320.000318689822)">
        <path
           style="color:#000000;clip-rule:nonzero;display:inline;overflow:visible;visibility:visible;opacity:1;isolation:auto;mix-blend-mode:normal;color-interpolation:sRGB;color-interpolation-filters:linearRGB;solid-color:#000000;solid-opacity:1;fill:#000000;fill-opacity:1;fill-rule:nonzero;stroke:none;stroke-width:6;stroke-linecap:round;stroke-linejoin:round;stroke-miterlimit:4;stroke-dasharray:none;stroke-dashoffset:0;stroke-opacity:1;marker:none;color-rendering:auto;image-rendering:auto;shape-rendering:auto;text-rendering:auto;enable-background:accumulate"
           d="m 11938.81786409729,-8535.279499945012 1400,0 0,1399.999999999994 -1400,0 z"
           id="path9354"
           inkscape:connector-curvature="0" />
        <use
           mask="url(#mask7163)"
           height="100%"
           width="100%"
           transform="matrix(14,0,0,14,2138.817864097278,-18335.27949994502)"
           id="use9356"
           xlink:href="#path6981"
           y="0"
           x="0" />
      </g>
    </mask>
    <clipPath
       clipPathUnits="userSpaceOnUse"
       id="clipPath11552">
      <path
         sodipodi:nodetypes="cccccccc"
         style="color:#000000;clip-rule:nonzero;display:inline;overflow:visible;visibility:visible;opacity:1;isolation:auto;mix-blend-mode:normal;color-interpolation:sRGB;color-interpolation-filters:linearRGB;solid-color:#000000;solid-opacity:1;fill:#ffffff;fill-opacity:1;fill-rule:nonzero;stroke:none;stroke-width:6;stroke-linecap:round;stroke-linejoin:round;stroke-miterlimit:4;stroke-dasharray:none;stroke-dashoffset:0;stroke-opacity:1;marker:none;color-rendering:auto;image-rendering:auto;shape-rendering:auto;text-rendering:auto;enable-background:accumulate"
         d="m 8590.980940964773,-5815.279181255194 700,0 350.000000000002,-350 0,-350 -350.000000000004,-350 -350,0 -350,350 z"
         id="path11554"
         inkscape:connector-curvature="0" />
    </clipPath>
    <clipPath
       clipPathUnits="userSpaceOnUse"
       id="clipPath11624">
      <path
         inkscape:connector-curvature="0"
         id="path11626"
         d="m 9290.980940964773,-5815.279181255194 -700.000000000002,0 0,-700 350.000000000002,-350.000000000001 349.999999999998,350.000000000001 z"
         style="color:#000000;clip-rule:nonzero;display:inline;overflow:visible;visibility:visible;opacity:1;isolation:auto;mix-blend-mode:normal;color-interpolation:sRGB;color-interpolation-filters:linearRGB;solid-color:#000000;solid-opacity:1;fill:#ffffff;fill-opacity:1;fill-rule:nonzero;stroke:none;stroke-width:6;stroke-linecap:round;stroke-linejoin:round;stroke-miterlimit:4;stroke-dasharray:none;stroke-dashoffset:0;stroke-opacity:1;marker:none;color-rendering:auto;image-rendering:auto;shape-rendering:auto;text-rendering:auto;enable-background:accumulate"
         sodipodi:nodetypes="cccccc" />
    </clipPath>
    <clipPath
       clipPathUnits="userSpaceOnUse"
       id="clipPath11628">
      <path
         sodipodi:nodetypes="ccccc"
         style="color:#000000;clip-rule:nonzero;display:inline;overflow:visible;visibility:visible;opacity:1;isolation:auto;mix-blend-mode:normal;color-interpolation:sRGB;color-interpolation-filters:linearRGB;solid-color:#000000;solid-opacity:1;fill:#ffffff;fill-opacity:1;fill-rule:nonzero;stroke:none;stroke-width:6;stroke-linecap:round;stroke-linejoin:round;stroke-miterlimit:4;stroke-dasharray:none;stroke-dashoffset:0;stroke-opacity:1;marker:none;color-rendering:auto;image-rendering:auto;shape-rendering:auto;text-rendering:auto;enable-background:accumulate"
         d="m 9290.980940964773,-6515.279181255194 -700.000000000002,0 0,700.000000000001 700.000000000002,0 z"
         id="path11630"
         inkscape:connector-curvature="0" />
    </clipPath>
    <clipPath
       clipPathUnits="userSpaceOnUse"
       id="clipPath11632">
      <path
         sodipodi:nodetypes="cccccc"
         style="color:#000000;clip-rule:nonzero;display:inline;overflow:visible;visibility:visible;opacity:1;isolation:auto;mix-blend-mode:normal;color-interpolation:sRGB;color-interpolation-filters:linearRGB;solid-color:#000000;solid-opacity:1;fill:#ffffff;fill-opacity:1;fill-rule:nonzero;stroke:none;stroke-width:6;stroke-linecap:round;stroke-linejoin:round;stroke-miterlimit:4;stroke-dasharray:none;stroke-dashoffset:0;stroke-opacity:1;marker:none;color-rendering:auto;image-rendering:auto;shape-rendering:auto;text-rendering:auto;enable-background:accumulate"
         d="m 8590.980940964773,-5815.279181255193 0,-700 700,0 350.000000000002,350.000000000001 -350.000000000002,349.999999999999 z"
         id="path11634"
         inkscape:connector-curvature="0" />
    </clipPath>
    <clipPath
       clipPathUnits="userSpaceOnUse"
       id="clipPath11682">
      <path
         inkscape:transform-center-y="153.9599205892814"
         inkscape:transform-center-x="3.990057703506579"
         sodipodi:nodetypes="ssssssssssssscssssssscsssssssssssssscsssssscssssssssssssssssssssssssscssssssssssscssssscsssssssssscsssssssssssssssssszsssssssssssssssssscsssssssssscssssscssssssssssscssssssssssssssssssssssssscsssssscsssssssssssssscssssssscssssssssssssszs"
         inkscape:connector-curvature="0"
         id="path11684"
         d="m 610.8247491567575,488.9461642566515 c 0.392664983296,-3.287218868495 3.3709571284693,-11.5043169215999 4.0091021967411,-11.06108832162 0.5364646545904,0.3726056810828 3.7769393593429,7.2306616784601 8.7479711691665,18.5139959726883 1.2830685453768,2.9123340090663 3.7736630391299,9.3221831859337 5.5346533370725,14.2441094790281 10.8827283176378,30.4170767169857 19.0189337215436,46.8496539093816 24.1621677035082,48.8000156673551 0.7489150888039,0.2839936988072 1.5113325718985,1.3467123302761 1.6942627772105,2.3615876196019 0.4359189380956,2.4184270589393 3.2410775187517,6.012763209868 6.0666533096853,7.7733655898188 1.2408747391568,0.7731830862897 2.3597727737015,1.9807629387185 2.4864400956418,2.6834983605894 0.126667321941,0.7027354218709 1.3029135607211,2.6884225902736 2.6138698305781,4.4126163713263 1.3109580437605,1.7242036224585 3.2314999961707,5.3799460558954 4.2678638342427,8.1238823990235 1.036360290266,2.7439166603159 3.4902637432192,6.7354310832618 5.4531095531105,8.8700246827766 1.9628458098922,2.1345935995148 4.4504677924607,6.1335141388904 5.5280376290449,8.8864842069778 1.0775716104864,2.7529799094932 2.9568726847226,6.8876841315606 4.1762188180014,9.1882495837384 2.6775301377627,5.0517194547872 6.9025096758819,15.3548405764949 7.3437343240671,17.9086840803011 0.568143486669,3.2882465390926 6.735240767812,13.9921611526778 8.5881727110118,14.9060527802077 0.9897963524778,0.4881820060408 2.5218377238414,1.3892125408347 3.4045529613759,2.0023006368899 2.644261679751,1.8366010403729 6.7848374513394,2.2091616322714 14.1610441856235,1.274185888253 3.8417375691697,-0.4869497441514 9.5968823705675,-0.6641773693674 12.7892163343215,-0.3938390591602 3.1923357376563,0.2703481516122 6.8806055097392,0.51746396159 8.1961521439291,0.5491614452602 1.3155466341899,0.03169748367 3.7372928049472,0.3870082116606 5.3816652014874,0.78958715795 2.8534445187338,0.6985756081558 8.9111760060107,1.1960626216038 14.0203547040444,1.1514157755513 3.6111731043502,-0.031557587256 16.2518611078076,-3.9776356134663 17.6012331103227,-5.4946196138203 4.7798366287741,-5.3730603077139 21.6205536410621,-10.6735021917865 33.5821366982864,-10.5687091136532 8.2342488293284,0.072148310471 16.7388526074037,-3.6182129492911 23.7291053871147,-10.2966420476821 1.7310383759692,-1.6538383458252 4.1579540640762,-3.9066885624444 5.393142533753,-5.0063591620683 2.7063385767383,-2.409389754784 21.4372475314409,-11.1395873049106 25.5564671316537,-11.9114380361575 4.4156146721791,-0.8274094732542 10.1178861140545,-5.1869672108777 14.3167289418785,-10.9455591590048 6.8450796261318,-9.3878262583479 9.527477296489,-13.6398827559807 9.3224016853693,-14.7776181551941 -0.1960198359951,-1.0874950226539 6.2724931838468,-9.3787815299537 16.3363855509449,-20.939870656224 4.8921960218911,-5.6199879035355 9.1026578042489,-14.0312914108589 9.4276593428873,-18.8337680316323 0.096386018642,-1.4243879128635 1.0108078321506,-3.3813741467145 2.0320243988167,-4.3488415386538 1.0212281819754,-0.9674593244365 1.9350286743495,-2.7150850047916 2.0306717217137,-3.883603175806 0.095633205959,-1.1685163971116 1.1705066802707,-3.7554863776137 2.3885938292932,-5.7488366102333 1.2180790815205,-1.9933386173119 2.1550451970329,-3.9551911687737 2.082136007342,-4.3596827881662 -0.072909189691,-0.4044916193925 0.6064813828382,-1.1255240782724 1.5097599300858,-1.6023084604435 1.9277070495208,-1.0175035607922 11.0292544142211,-13.3920123778494 10.7971285553316,-14.6798193739609 -0.087297317415,-0.484315261759 0.3681924810627,-1.19982226325 1.0122003405744,-1.5900111849112 0.6469631217958,-0.3920019094794 1.301867971575,-4.0723132886341 1.4635815462208,-8.224744869572 0.160954827346,-4.1334154009194 0.5821477654357,-9.0678278696339 0.9359527225316,-10.9653734128106 0.353824639908,-1.897549090984 0.9300469884828,-5.8594691070876 1.280514006731,-8.8042815793548 0.3504571768418,-2.9448106983643 1.3177720542486,-7.5585136376039 2.1495954824852,-10.2526789519708 1.7623561684103,-5.7081122552178 0.7328930673915,-18.5105954509593 -1.9210700455235,-23.8906120704302 -4.1003431289289,-8.3120329063075 -5.0970906103646,-12.1799423699264 -5.7606433513024,-22.354507253679 l -0.6665683855806,-10.2207219621633 -4.2476204093175,-6.7510205930694 c -2.3361815210094,-3.7130610431146 -5.5794472996438,-8.1202323185175 -7.2072513350944,-9.7937059858249 -1.627794194045,-1.6734754412102 -5.5938622203082,-6.2115953745807 -8.8134947572887,-10.0846989535356 -3.2196325369805,-3.8731035789556 -7.1079487231408,-7.9468309377074 -8.6407181796161,-9.0527009528073 -1.5327631628752,-1.1058914718143 -4.3101458977451,-3.3270672602979 -6.171946394428,-4.9359681366575 -1.8618085641857,-1.6088892610505 -4.3756397564406,-3.6642061116237 -5.5863008964359,-4.5673600601315 -9.6081721607128,-7.1677091159657 -13.2280150621085,-13.112139296405 -6.9478661743318,-11.4096259538853 1.8932193311232,0.5132409476671 3.9377895784595,0.8438370687957 4.5434985806429,0.7346586571288 0.6057090021834,-0.1091784116666 4.2260243674764,0.1204241005677 8.0451611563609,0.5102283260293 3.8191367888843,0.3898042254617 9.1258788601266,0.9230363784793 11.792766916353,1.1849602509265 8.1172704086265,0.7971980168289 28.2289327452919,-0.7557446924689 35.32658834828,-2.7277752549783 7.5737684594951,-2.1043265048822 10.8172614117393,-4.8823078885388 23.310502531147,-19.9649497202723 8.3420614849616,-10.0710620525151 12.2376066332523,-14.5118117169105 16.682290069887,-19.017056038255 5.7279129931951,-5.8059451673769 6.4076240269884,-10.5824113028205 4.21658580391,-29.6305752117518 -0.9124688097412,-7.9327761143342 -0.6530623798733,-9.43436665684 2.4933341778459,-14.4327991502196 4.9416561009617,-7.8504047619679 9.163111269743,-24.4434460125062 8.730075987349,-34.3148850585168 -0.151539001845,-3.4545048974521 0.478128596264,-5.6884407545423 2.545902280452,-9.0323664870725 2.622467519156,-4.2409493163055 6.106414763277,-10.9421956710951 7.512976102357,-14.4509325527528 0.361420187132,-0.9015809900577 1.542827671871,-3.6848726189394 2.625331179664,-6.1850902514094 1.082503507794,-2.5002176324704 2.754439642066,-7.8677589929737 3.715408145393,-11.9278562819205 1.312860444562,-5.5468688440601 2.440309615988,-7.999829940256 4.535242378489,-9.8672468551139 2.879261061873,-2.5665571106023 3.89533545936,-3.7046686489285 7.937597685649,-8.8909481725675 1.306568847774,-1.6763180819063 2.727079699983,-3.1112196446477 3.156706269764,-3.1886593827558 0.825949822367,-0.1488765882585 6.788086446524,-8.746637335737 9.56550735693,-13.7940235030357 0.905633489888,-1.6458020697807 2.607670984665,-4.6659548969356 3.782308233117,-6.7114545987807 1.174647089859,-2.0455014757481 2.244306941726,-4.4888386774669 2.377042078038,-5.4296452514171 0.132713679597,-0.94081286755 0.589065379205,-1.7732471610918 1.014105853888,-1.8498602603737 1.200454678317,-0.2163806953244 3.896065789003,-8.3247703399112 4.379421562939,-13.1732876455524 0.239329760752,-2.400840723188 0.869668504594,-5.1223990449613 1.400725623957,-6.0479013607194 6.770256808201,-11.7987594196811 -1.129205766233,-52.62428045992786 -11.751091032983,-60.73125286972987 -2.423527278683,-1.84971516577055 -4.937490113886,-4.03384150811404 -5.586604746543,-4.853616013738 -0.649114632656,-0.8197745056241 -1.559977858913,-1.42204790654201 -2.024118238801,-1.33838709040106 -0.464160062699,0.0836643639472 -2.846461677507,-0.73097818256507 -5.293990682561,-1.81030780613537 -14.624311373317,-6.44915885476293 -55.0882063800615,-8.54200750310868 -91.1571752843744,-4.71477436875369 -21.0236227001252,2.23078583678246 -78.5038126857595,15.40136204265619 -91.4824703570722,20.96162261214026 -1.2159384295353,0.52091713427403 -6.6562619179781,2.53386192166704 -12.0896034483751,4.47319066962703 -12.267672077464,4.3787403915195 -19.3264529669933,7.609792306331 -23.9045763204517,10.94195315068076 -1.9461052268156,1.41647466986214 -4.0741107897783,2.69080232670764 -4.7289149966896,2.83179429637552 -0.6548087266084,0.14102326778854 -2.5427955935827,1.07819686655948 -4.1955247753757,2.08260432259948 -5.3067245741812,3.2250184210919 -25.3073137860855,14.74018290356652 -29.2309084785187,16.82942473253513 -7.6277812757079,4.0616701923791 -28.9308950629944,18.3064805102922 -33.691522777621,22.5286000893339 -1.3551712066784,1.2018752811294 -5.742110629973,4.2132850228355 -9.7487642747442,6.6919974834783 -4.0066500969642,2.4787321434541 -8.5760000322523,5.667279034326 -10.154108207901,7.0856750663462 -1.5781099495516,1.4183861906144 -3.8501582752102,3.0827107624665 -5.0490016009511,3.6984695243429 -1.1988397779345,0.615778444688 -4.2218461727523,2.8703364588869 -6.7177902145811,5.0101387618482 -2.4959440418296,2.1398023029609 -5.8893511877709,4.7176225719428 -7.5409131413503,5.7285056729931 -3.7618752042622,2.3025269377918 -19.2481973861253,15.8514179351109 -28.718198042705,25.1253636590828 -3.9427345854914,3.8611179903844 -7.4290184159154,7.0671365438903 -7.7472894791779,7.1245045688681 -0.8614379316474,0.1552732826952 -10.9612617291607,10.2956445335558 -15.0179620261848,15.0782430845028 -1.9444917435443,2.2924407686764 -4.8538530387889,5.1774884448392 -6.4652467314652,6.4112203386079 -1.6113954665799,1.2337220523629 -4.2749017590345,3.8857011008576 -5.918922911383,5.8932632900889 -6.6394168414589,8.1076609942114 -10.4556130493504,8.9212705844768 -9.7626597671433,2.0814010189313 0.8707907923739,-8.5953369115187 -2.3525724486085,-15.5894765240287 -8.7856318995913,-19.0632562745347 -1.9813673077325,-1.0699230062246 -3.708512423025,-2.5334956198042 -3.8381104026996,-3.2523772407713 -0.1295997535774,-0.7188914623729 0.052494372458,-1.1069272175082 0.4046571476073,-0.8623384436465 0.3521529337431,0.2445905477648 2.9043689383453,-1.6490905155487 5.6715906002739,-4.2081642405422 2.7672082727171,-2.5590916339022 6.875219694908,-6.3141968314234 9.1288938003221,-8.3446790428659 4.4044948531257,-3.9682996242335 15.9173209769142,-14.70192241613 18.8449619832362,-17.5694956005139 6.0738057097493,-5.9492052034467 29.4354037823314,-31.7839503337944 36.3693765159433,-40.2195638245621 2.1037818134774,-2.559401119516 4.4422290899226,-5.1933620934461 5.1965415814471,-5.8532655031432 2.8929228551881,-2.5308441941239 7.8186539577755,-8.2593316357359 12.1044858817344,-14.0771742881093 2.4535606238162,-3.3306297289042 5.9284736362108,-7.8205430368963 7.7220270534177,-9.97760172831542 11.4418079943297,-13.76074324167834 25.648916307292,-37.13202147323993 23.4855185725645,-38.63462612669274 -1.8139627832546,-1.2599019013269 -4.0060824787176,0.98788752103057 -8.792529023362,9.01585566471805 -12.716101487342,21.32782001029696 -30.4441840090881,46.40520276417851 -37.840418589405,53.52743760045162 -3.1251145089369,3.0093414317642 -7.0955183725998,7.1425122847425 -8.8231292522222,9.1848337431594 -11.5319497241154,13.6326520587217 -18.1325025453766,21.0643891914415 -21.9081192117877,24.6669108956527 -2.3848037185314,2.2754788382843 -6.2869582154208,6.393919299722 -8.6714408323444,9.1520964941189 -2.384482616923,2.7581771943966 -6.2808558316227,6.7908722397691 -8.6586034177459,8.9615777441584 -2.3777609753347,2.1706875954809 -7.3228417178618,6.7310009104173 -10.9890627412916,10.1340229386978 -15.0257706818843,13.947038006811 -17.0723887476732,14.7481534387467 -18.4606607960826,7.2260126449496 -0.8460523997754,-4.5843232175792 -4.2379330182922,-12.5939342699479 -5.8651636307585,-13.8501115783132 -1.5745274283962,-1.2154910823318 -4.312013540472,4.9836573210132 -3.7156998931646,8.4142645040692 0.5007104880465,2.8804815832704 0.1269647974106,6.5063590424724 -0.7251352025896,6.5063590424726 -0.8521000000002,9e-14 -1.2258456906359,-3.6258774592019 -0.7251352025901,-6.5063590424724 0.5963136473074,-3.430607183056 -2.1411724647678,-9.629755586401 -3.7156998931639,-8.4142645040692 -1.6272306124663,1.2561773083653 -5.0191112309833,9.265788360734 -5.8651636307586,13.8501115783132 -1.3882720484096,7.5221407937971 -3.4348901141989,6.7210253618614 -18.4606607960832,-7.2260126449496 -3.6662210234299,-3.4030220282804 -8.611301765957,-7.9633353432169 -10.9890627412917,-10.1340229386978 -2.3777475861225,-2.1707055043893 -6.2741208008224,-6.2034005497618 -8.658603417746,-8.9615777441584 -2.3844826169234,-2.7581771943969 -6.2866371138125,-6.8766176558346 -8.6714408323435,-9.1520964941189 -3.7756166664119,-3.6025217042114 -10.3761694876725,-11.034258836931 -21.9081192117884,-24.6669108956527 -1.7276108796217,-2.0423214584173 -5.6980147432846,-6.1754923113954 -8.8231292522222,-9.1848337431597 -7.3962345803167,-7.122234836273 -25.1243171020623,-32.19961759015456 -37.8404185894045,-53.52743760045152 -4.7864465446443,-8.02796814368752 -6.9785662401075,-10.27575756604502 -8.7925290233624,-9.01585566471805 -2.1633977347271,1.50260465345275 12.0437105782352,24.87388288501442 23.4855185725645,38.63462612669282 1.7935534172069,2.15705869141904 5.2684664296019,6.64697199941124 7.7220270534181,9.97760172831543 4.2858319239585,5.8178426523734 9.2115630265458,11.5463300939854 12.104485881734,14.0771742881092 0.7543124915246,0.6599034096972 3.0927597679697,3.2938643836272 5.1965415814473,5.8532655031433 6.9339727336121,8.4356134907675 30.2955708061937,34.2703586211154 36.369376515943,40.2195638245619 2.9276410063226,2.8675731843843 14.4404671301111,13.6011959762805 18.8449619832368,17.5694956005139 2.253674105414,2.0304822114424 6.361685527605,5.7855874089637 9.1288938003214,8.3446790428659 2.7672216619287,2.5590737249937 5.3194376665308,4.4527547883072 5.6715906002738,4.2081642405424 0.3521627751495,-0.2445887738617 0.5342569011849,0.1434469812736 0.4046571476075,0.8623384436465 -0.1295979796747,0.7188816209671 -1.8567430949673,2.1824542345467 -3.8381104027004,3.2523772407713 -6.433059450982,3.4737797505059 -9.6564226919645,10.4679193630159 -8.7856318995913,19.0632562745346 0.6929532822077,6.8398695655454 -3.1232429256845,6.02625997528 -9.7626597671425,-2.0814010189313 -1.6440211523493,-2.0075621892313 -4.3075274448039,-4.6595412377257 -5.918922911383,-5.8932632900889 -1.6113936926764,-1.2337318937686 -4.5207549879218,-4.1187795699314 -6.4652467314653,-6.4112203386079 -4.0567002970242,-4.782598550947 -14.1565240945381,-14.9229698018077 -15.0179620261849,-15.0782430845027 -0.3182710632624,-0.057368024978 -3.8045548936864,-3.2633865784839 -7.7472894791778,-7.1245045688683 -9.4700006565797,-9.2739457239718 -24.9563228384425,-22.8228367212908 -28.7181980427047,-25.1253636590829 -1.6515619535793,-1.0108831010502 -5.044969099521,-3.5887033700319 -7.5409131413502,-5.728505672993 -2.4959440418288,-2.1398023029612 -5.5189504366468,-4.3943603171602 -6.7177902145812,-5.0101387618482 -1.1988433257409,-0.6157587618763 -3.4708916513995,-2.2800833337285 -5.0490016009514,-3.6984695243429 -1.5781081756487,-1.4183960320201 -6.1474581109365,-4.606942922892 -10.1541082079008,-7.085675066346 -4.0066536447711,-2.4787124606427 -8.3935930680658,-5.4901222023488 -9.748764274744,-6.6919974834783 -4.7606277146269,-4.2221195790418 -26.0637415019133,-18.4669298969549 -33.6915227776211,-22.528600089334 -3.9235946924334,-2.0892418289686 -23.9241839043374,-13.60440631144331 -29.2309084785185,-16.82942473253513 -1.6527291817929,-1.00440745604 -3.5407160487676,-1.94158105481114 -4.1955247753757,-2.08260432259952 -0.6548042069112,-0.14099196966771 -2.7828097698739,-1.41531962651321 -4.7289149966897,-2.83179429637551 -4.5781233534583,-3.3321608443498 -11.6369042429883,-6.5632127591612 -23.9045763204516,-10.9419531506807 -5.433341530397,-1.93932874796012 -10.8736650188401,-3.952273535353 -12.0896034483751,-4.47319066962703 -12.9786576713131,-5.5602605694841 -70.4588476569473,-18.73083677535794 -91.4824703570726,-20.9616226121403 -36.068968904313,-3.82723313435497 -76.5328639110571,-1.73438448600917 -91.1571752843744,4.71477436875369 -2.4475290050546,1.07932962357035 -4.829830619862,1.89397217008253 -5.2939906825613,1.81030780613537 -0.4641403798881,-0.083660816141 -1.3750036061449,0.51861258477696 -2.0241182388012,1.33838709040108 -0.6491146326566,0.81977450562394 -3.1630774678595,3.00390084796742 -5.5866047465419,4.85361601373797 -10.6218852667505,8.10697240980198 -18.5213478411842,48.93249345004878 -11.7510910329833,60.73125286972979 0.5310571193629,0.9255023157582 1.1613958632049,3.6470606375315 1.4007256239562,6.0479013607194 0.4833557739369,4.8485173056412 3.178966884623,12.956906950228 4.3794215629393,13.1732876455524 0.4250404746829,0.076613099282 0.8813921742907,0.9090473928238 1.0141058538883,1.8498602603737 0.132735136312,0.9408065739502 1.2023949881793,3.3841437756691 2.3770420780376,5.4296452514171 1.1746372484526,2.045499701845 2.8766747432298,5.0656525290002 3.7823082331171,6.711454598781 2.7774209104063,5.0473861672985 8.7395575345635,13.645146914777 9.5655073569307,13.7940235030355 0.4296265697809,0.077439738108 1.8501374219892,1.5123413008495 3.1567062697634,3.1886593827558 4.0422622262889,5.1862795236388 5.0583366237763,6.3243910619652 7.9375976856488,8.8909481725675 2.0949327625017,1.8674169148578 3.2223819339273,4.3203780110538 4.5352423784891,9.8672468551139 0.9609685033272,4.0600972889468 2.6329046375995,9.4276386494501 3.715408145393,11.9278562819205 1.0825035077935,2.5002176324701 2.2639109925325,5.2835092613517 2.6253311796642,6.1850902514094 1.4065613390801,3.5087368816578 4.890508583201,10.2099832364473 7.5129761023573,14.4509325527528 2.0677736841882,3.3439257325301 2.6974412822964,5.5778615896204 2.5459022804521,9.0323664870725 -0.4330352823946,9.8714390460106 3.7884198863867,26.4644802965489 8.7300759873484,34.3148850585169 3.1463965577189,4.9984324933796 3.4058029875869,6.500023035885 2.4933341778462,14.4327991502195 -2.1910382230786,19.0481639089314 -1.5113271892853,23.8246300443749 4.2165858039093,29.6305752117515 4.4446834366348,4.5052443213443 8.3402285849254,8.9459939857396 16.6822900698874,19.017056038255 12.4932411194077,15.0826418317334 15.7367340716516,17.8606232153901 23.3105025311471,19.9649497202723 7.0976556029884,1.9720305625091 27.2093179396539,3.5249732718071 35.3265883482801,2.7277752549783 2.6668880562266,-0.2619238724474 7.9736301274682,-0.7951560254646 11.7927669163527,-1.1849602509265 3.819136788885,-0.3898042254613 7.4394521541782,-0.6194067376961 8.0451611563615,-0.5102283260292 0.6057090021827,0.1091784116666 2.6502792495198,-0.2214177094619 4.5434985806429,-0.734658657129 6.2801488877768,-1.7025133425196 2.660305986381,4.2419168379195 -6.9478661743318,11.4096259538854 -1.2106611399956,0.9031539485076 -3.7244923322503,2.9584707990807 -5.5863008964358,4.5673600601314 -1.8618004966829,1.6089008763596 -4.6391832315535,3.830076664843 -6.1719463944287,4.9359681366574 -1.5327694564753,1.1058700150999 -5.4210856426349,5.1795973738517 -8.6407181796154,9.0527009528073 -3.2196325369811,3.8731035789551 -7.1857005632438,8.4112235123254 -8.8134947572887,10.0846989535356 -1.6278040354505,1.6734736673072 -4.8710698140855,6.0806449427101 -7.2072513350944,9.7937059858247 l -4.2476204093176,6.7510205930695 -0.6665683855812,10.2207219621633 c -0.6635527409371,10.1745648837526 -1.6603002223731,14.0424743473715 -5.7606433513025,22.354507253679 -2.6539631129148,5.3800166194711 -3.6834262139333,18.1824998152126 -1.921070045523,23.8906120704302 0.8318234282362,2.6941653143668 1.7991383056433,7.3078682536063 2.1495954824851,10.2526789519704 0.3504670182485,2.944812472267 0.926689366823,6.9067324883707 1.280514006731,8.8042815793547 0.3538049570959,1.8975455431769 0.7749978951857,6.8319580118912 0.9359527225316,10.9653734128108 0.1617135746458,4.1524315809381 0.8166184244246,7.832742960093 1.4635815462208,8.2247448695724 0.6440078595114,0.3901889216611 1.0994976579889,1.1056959231522 1.0122003405739,1.590011184911 -0.2321258588895,1.2878069961115 8.8694215058109,13.6623158131688 10.7971285553318,14.6798193739614 0.9032785472473,0.4767843821705 1.5826691197765,1.1978168410504 1.5097599300854,1.6023084604428 -0.072909189691,0.4044916193925 0.8640569258218,2.366344170855 2.0821360073418,4.3596827881668 1.2180871490225,1.9933502326196 2.2929606233351,4.5803202131217 2.3885938292936,5.7488366102333 0.095643047364,1.1685181710144 1.0094435397385,2.9161438513695 2.0306717217138,3.883603175806 1.0212165666663,0.9674673919394 1.9356383801743,2.9244536257903 2.0320243988165,4.3488415386533 0.3250015386382,4.8024766207739 4.5354633209959,13.2137801280968 9.4276593428875,18.8337680316328 10.0638923670982,11.5610891262703 16.5324053869403,19.8523756335702 16.3363855509448,20.939870656224 -0.2050756111193,1.1377353992134 2.477322059238,5.3897918968462 9.3224016853697,14.7776181551941 4.198842827824,5.7585919481266 9.9011142696991,10.1181496857506 14.3167289418785,10.9455591590043 4.1192196002128,0.7718507312469 22.8501285549155,9.5020482813735 25.5564671316537,11.911438036158 1.2351884696769,1.0996705996231 3.6621041577835,3.3525208162425 5.3931425337527,5.0063591620683 6.9902527797113,6.678429098391 15.4948565577865,10.3687903581524 23.7291053871146,10.2966420476813 11.9615830572245,-0.1047930781325 28.8023000695127,5.1956488059402 33.582136698286,10.5687091136541 1.3493720025152,1.516984000354 13.9900600059729,5.463062026564 17.6012331103232,5.4946196138197 5.1091786980338,0.044646846053 11.1669101853109,-0.4528401673959 14.0203547040447,-1.1514157755508 1.6443723965401,-0.40257894629 4.0661185672975,-0.7578896742806 5.3816652014874,-0.7895871579506 1.3155466341899,-0.03169748367 5.0038164062728,-0.278813293648 8.1961521439292,-0.5491614452596 3.192333963754,-0.2703383102076 8.9474787651518,-0.093110684991 12.7892163343217,0.3938390591594 7.376206734284,0.9349757440192 11.5167825058726,0.5624151521201 14.1610441856233,-1.2741858882528 0.8827152375343,-0.6130880960551 2.4147566088981,-1.514118630849 3.4045529613759,-2.0023006368893 1.8529319431997,-0.9138916275303 8.020029224343,-11.6178062411151 8.5881727110121,-14.9060527802083 0.4412246481853,-2.5538435038061 4.6662041863045,-12.8569646255138 7.3437343240666,-17.9086840803005 1.2193461332788,-2.3005654521786 3.098647207515,-6.4352696742457 4.176218818002,-9.1882495837383 1.0775698365836,-2.7529700680875 3.5651918191521,-6.7518906074631 5.5280376290443,-8.8864842069784 1.9628458098913,-2.1345935995151 4.4167492628443,-6.126108022461 5.4531095531105,-8.8700246827769 1.0363638380727,-2.7439363431273 2.956905790483,-6.3996787765647 4.2678638342428,-8.1238823990227 1.310956269857,-1.7241937810533 2.4872025086371,-3.7098809494554 2.6138698305773,-4.4126163713263 0.126667321941,-0.7027354218714 1.2455653564856,-1.9103152742997 2.4864400956425,-2.68349836059 2.8255757909336,-1.7606023799508 5.6307343715896,-5.3549385308789 6.0666533096854,-7.7733655898181 0.1829302053111,-1.0148752893259 0.9453476884064,-2.0775939207953 1.6942627772105,-2.3615876196025 5.1432339819645,-1.950361757973 13.2794393858702,-18.382938950369 24.1621677035082,-48.8000156673548 1.7609902979425,-4.9219262930941 4.251584791695,-11.3317754699613 5.5346533370729,-14.2441094790279 4.9710318098232,-11.2833342942279 8.2115065145757,-18.1413902916049 8.7479711691668,-18.5139959726881 0.6381450682717,-0.4432285999799 3.6164372134448,7.7738694531249 4.0091021967404,11.0610883216194 1.4099788067175,11.8037236188403 5.8550727894924,17.6503227533158 10.824749156758,17.6503227533158 4.9696763672647,0 9.4147703500388,-5.8465991344756 10.8247491567571,-17.6503227533158 z"
         style="fill:#ffffff" />
    </clipPath>
    <radialGradient
       inkscape:collect="always"
       xlink:href="#linearGradient11500"
       id="radialGradient4574"
       gradientUnits="userSpaceOnUse"
       gradientTransform="matrix(0.4956888478781585,-0.2764917736898351,0.901626862494316,1.616418364718376,-319.7357811365756,-244.3661765495634)"
       spreadMethod="repeat"
       cx="631.4293212890625"
       cy="734.451171875"
       fx="613.286376953125"
       fy="750.6055908203125"
       r="50" />
    <radialGradient
       inkscape:collect="always"
       xlink:href="#linearGradient5419"
       id="radialGradient4806"
       gradientUnits="userSpaceOnUse"
       gradientTransform="matrix(0.1746864946073709,-0.1726063397218856,0.6184920768793983,0.6259457968147592,195.9306785238593,455.6946150867411)"
       spreadMethod="repeat"
       cx="662.9676513671875"
       cy="638.3067626953125"
       fx="645.0748901367188"
       fy="668.6484375"
       r="50" />
  </defs>
  <sodipodi:namedview
     pagecolor="#4caa72"
     bordercolor="#ffffff"
     borderopacity="1"
     objecttolerance="10"
     gridtolerance="10"
     guidetolerance="10"
     inkscape:pageopacity="1"
     inkscape:pageshadow="2"
     inkscape:window-width="1366"
     inkscape:window-height="705"
     id="namedview3396"
     showgrid="false"
     inkscape:zoom="0.7685714285714286"
     inkscape:cx="600"
     inkscape:cy="350"
     inkscape:window-x="-8"
     inkscape:window-y="-8"
     inkscape:window-maximized="1"
     inkscape:current-layer="svg3394"
     showguides="true"
     inkscape:guide-bbox="true"
     inkscape:object-nodes="true"
     inkscape:snap-smooth-nodes="true"
     inkscape:snap-object-midpoints="true"
     inkscape:snap-center="true"
     borderlayer="true"
     inkscape:showpageshadow="false"
     guidehicolor="#ffde00"
     guidehiopacity="0.4980392157"
     guidecolor="#00ffd2"
     guideopacity="0.4980392157"
     inkscape:snap-global="false">
    <sodipodi:guide
       position="600,350.0000000000001"
       orientation="1,0"
       id="guide4161"
       inkscape:label=""
       inkscape:color="rgb(0,255,210)" />
    <sodipodi:guide
       position="600,350.0000000000001"
       orientation="0,1"
       id="guide4163" />
  </sodipodi:namedview>
  <path
     style="color:#000000;clip-rule:nonzero;display:inline;overflow:visible;visibility:visible;opacity:1;isolation:auto;mix-blend-mode:normal;color-interpolation:sRGB;color-interpolation-filters:linearRGB;solid-color:#000000;solid-opacity:1;fill:#ffffff;fill-opacity:1;fill-rule:nonzero;stroke:none;stroke-width:6;stroke-linecap:round;stroke-linejoin:round;stroke-miterlimit:4;stroke-dasharray:none;stroke-dashoffset:0;stroke-opacity:1;marker:none;color-rendering:auto;image-rendering:auto;shape-rendering:auto;text-rendering:auto;enable-background:accumulate"
     d="m 0,0 1200,0 0,700 -1200,0 z"
     id="rect11686"
     inkscape:connector-curvature="0" />
  <g
     id="g11636"
     clip-path="url(#clipPath11682)">
    <g
       clip-path="url(#clipPath11552)"
       transform="translate(-8690.980940964773,6865.279181255193)"
       id="g9358">
      <g
         id="g9344">
        <use
           height="100%"
           width="100%"
           transform="matrix(14,0,0,14,1590.980940964764,-17015.2791812552)"
           id="use7155"
           xlink:href="#path6739"
           y="0"
           x="0" />
        <g
           transform="translate(828.1630486398181,-15.41493828768944)"
           mask="url(#mask9316)"
           id="g9281">
          <use
             x="0"
             y="0"
             xlink:href="#path4538"
             id="use7149"
             transform="matrix(14,0,0,14,4962.817892324952,-16999.86424296751)"
             width="100%"
             height="100%" />
          <use
             x="0"
             y="0"
             xlink:href="#path4542"
             id="use7151"
             transform="matrix(14,0,0,14,3562.817892324949,-16999.86424296751)"
             width="100%"
             height="100%"
             mask="url(#mask9273)" />
        </g>
      </g>
      <g
         id="g9338"
         mask="url(#mask9350)"
         transform="translate(2404.163041670838,0)">
        <use
           height="100%"
           width="100%"
           transform="matrix(14,0,0,14,586.8178992939265,-17015.2791812552)"
           id="use7153"
           xlink:href="#path6717"
           y="0"
           x="0" />
        <g
           mask="url(#mask9330)"
           transform="translate(1347.999992887877,0)"
           id="g9263">
          <use
             x="0"
             y="0"
             xlink:href="#path4520"
             id="use7145"
             transform="matrix(14,0,0,14,4838.817906406056,-17015.2791812552)"
             width="100%"
             height="100%" />
          <use
             x="0"
             y="0"
             xlink:href="#path4526"
             id="use7147"
             transform="matrix(14,0,0,14,3438.817906406054,-17015.2791812552)"
             width="100%"
             height="100%"
             mask="url(#mask9255)" />
        </g>
      </g>
    </g>
    <g
       clip-path="url(#clipPath11624)"
       id="g11530"
       transform="matrix(-1,0,0,1,9890.980940964771,6865.279181255192)">
      <g
         id="g11532">
        <use
           x="0"
           y="0"
           xlink:href="#path6739"
           id="use11534"
           transform="matrix(14,0,0,14,1590.980940964764,-17015.2791812552)"
           width="100%"
           height="100%" />
        <g
           id="g11536"
           mask="url(#mask9316)"
           transform="translate(828.163048639818,-15.41493828768944)">
          <use
             height="100%"
             width="100%"
             transform="matrix(14,0,0,14,4962.817892324952,-16999.86424296751)"
             id="use11538"
             xlink:href="#path4538"
             y="0"
             x="0" />
          <use
             mask="url(#mask9273)"
             height="100%"
             width="100%"
             transform="matrix(14,0,0,14,3562.817892324949,-16999.86424296751)"
             id="use11540"
             xlink:href="#path4542"
             y="0"
             x="0" />
        </g>
      </g>
      <g
         transform="translate(2404.163041670838,0)"
         mask="url(#mask9350)"
         id="g11542">
        <use
           x="0"
           y="0"
           xlink:href="#path6717"
           id="use11544"
           transform="matrix(14,0,0,14,586.8178992939265,-17015.2791812552)"
           width="100%"
           height="100%" />
        <g
           id="g11546"
           transform="translate(1347.999992887877,0)"
           mask="url(#mask9330)">
          <use
             height="100%"
             width="100%"
             transform="matrix(14,0,0,14,4838.817906406056,-17015.2791812552)"
             id="use11548"
             xlink:href="#path4520"
             y="0"
             x="0" />
          <use
             mask="url(#mask9255)"
             height="100%"
             width="100%"
             transform="matrix(14,0,0,14,3438.817906406054,-17015.2791812552)"
             id="use11550"
             xlink:href="#path4526"
             y="0"
             x="0" />
        </g>
      </g>
    </g>
    <g
       clip-path="url(#clipPath11632)"
       id="g11578"
       transform="matrix(1,0,0,-1,-8690.980940964773,-6165.279181255191)">
      <g
         id="g11580">
        <use
           x="0"
           y="0"
           xlink:href="#path6739"
           id="use11582"
           transform="matrix(14,0,0,14,1590.980940964764,-17015.2791812552)"
           width="100%"
           height="100%" />
        <g
           id="g11584"
           mask="url(#mask9316)"
           transform="translate(828.163048639818,-15.41493828768944)">
          <use
             height="100%"
             width="100%"
             transform="matrix(14,0,0,14,4962.817892324952,-16999.86424296751)"
             id="use11586"
             xlink:href="#path4538"
             y="0"
             x="0" />
          <use
             mask="url(#mask9273)"
             height="100%"
             width="100%"
             transform="matrix(14,0,0,14,3562.817892324949,-16999.86424296751)"
             id="use11588"
             xlink:href="#path4542"
             y="0"
             x="0" />
        </g>
      </g>
      <g
         transform="translate(2404.163041670838,0)"
         mask="url(#mask9350)"
         id="g11590">
        <use
           x="0"
           y="0"
           xlink:href="#path6717"
           id="use11592"
           transform="matrix(14,0,0,14,586.8178992939265,-17015.2791812552)"
           width="100%"
           height="100%" />
        <g
           id="g11594"
           transform="translate(1347.999992887877,0)"
           mask="url(#mask9330)">
          <use
             height="100%"
             width="100%"
             transform="matrix(14,0,0,14,4838.817906406056,-17015.2791812552)"
             id="use11596"
             xlink:href="#path4520"
             y="0"
             x="0" />
          <use
             mask="url(#mask9255)"
             height="100%"
             width="100%"
             transform="matrix(14,0,0,14,3438.817906406054,-17015.2791812552)"
             id="use11598"
             xlink:href="#path4526"
             y="0"
             x="0" />
        </g>
      </g>
    </g>
    <g
       clip-path="url(#clipPath11628)"
       transform="matrix(-1,0,0,-1,9890.980940964771,-6165.279181255193)"
       id="g11556">
      <g
         id="g11558">
        <use
           height="100%"
           width="100%"
           transform="matrix(14,0,0,14,1590.980940964764,-17015.2791812552)"
           id="use11560"
           xlink:href="#path6739"
           y="0"
           x="0" />
        <g
           transform="translate(828.163048639818,-15.41493828768944)"
           mask="url(#mask9316)"
           id="g11562">
          <use
             x="0"
             y="0"
             xlink:href="#path4538"
             id="use11564"
             transform="matrix(14,0,0,14,4962.817892324952,-16999.86424296751)"
             width="100%"
             height="100%" />
          <use
             x="0"
             y="0"
             xlink:href="#path4542"
             id="use11566"
             transform="matrix(14,0,0,14,3562.817892324949,-16999.86424296751)"
             width="100%"
             height="100%"
             mask="url(#mask9273)" />
        </g>
      </g>
      <g
         id="g11568"
         mask="url(#mask9350)"
         transform="translate(2404.163041670838,0)">
        <use
           height="100%"
           width="100%"
           transform="matrix(14,0,0,14,586.8178992939265,-17015.2791812552)"
           id="use11570"
           xlink:href="#path6717"
           y="0"
           x="0" />
        <g
           mask="url(#mask9330)"
           transform="translate(1347.999992887877,0)"
           id="g11572">
          <use
             x="0"
             y="0"
             xlink:href="#path4520"
             id="use11574"
             transform="matrix(14,0,0,14,4838.817906406056,-17015.2791812552)"
             width="100%"
             height="100%" />
          <use
             x="0"
             y="0"
             xlink:href="#path4526"
             id="use11576"
             transform="matrix(14,0,0,14,3438.817906406054,-17015.2791812552)"
             width="100%"
             height="100%"
             mask="url(#mask9255)" />
        </g>
      </g>
    </g>
  </g>
  <path
     style="color:#000000;clip-rule:nonzero;display:inline;overflow:visible;visibility:visible;opacity:1;isolation:auto;mix-blend-mode:normal;color-interpolation:sRGB;color-interpolation-filters:linearRGB;solid-color:#000000;solid-opacity:1;fill:#00ffff;fill-opacity:1;fill-rule:nonzero;stroke:none;stroke-width:6;stroke-linecap:round;stroke-linejoin:round;stroke-miterlimit:4;stroke-dasharray:none;stroke-dashoffset:0;stroke-opacity:1;marker:none;color-rendering:auto;image-rendering:auto;shape-rendering:auto;text-rendering:auto;enable-background:accumulate"
     d="m 2.273736754432321e-13,700.0000000000004 100.00000000000007105427357601,0 0,100 -100.00000000000007105427357601,0 z"
     id="path4520"
     inkscape:connector-curvature="0" />
  <path
     inkscape:connector-curvature="0"
     id="path4526"
     d="m 100.0000000000003,700.0000000000004 100.0000000000001,0 0,100 -100.0000000000001,0 z"
     style="color:#000000;clip-rule:nonzero;display:inline;overflow:visible;visibility:visible;opacity:1;isolation:auto;mix-blend-mode:normal;color-interpolation:sRGB;color-interpolation-filters:linearRGB;solid-color:#000000;solid-opacity:1;fill:#0000ff;fill-opacity:1;fill-rule:nonzero;stroke:none;stroke-width:6;stroke-linecap:round;stroke-linejoin:round;stroke-miterlimit:4;stroke-dasharray:none;stroke-dashoffset:0;stroke-opacity:1;marker:none;color-rendering:auto;image-rendering:auto;shape-rendering:auto;text-rendering:auto;enable-background:accumulate" />
  <path
     style="color:#000000;clip-rule:nonzero;display:inline;overflow:visible;visibility:visible;opacity:1;isolation:auto;mix-blend-mode:normal;color-interpolation:sRGB;color-interpolation-filters:linearRGB;solid-color:#000000;solid-opacity:1;fill:#ffffff;fill-opacity:1;fill-rule:nonzero;stroke:none;stroke-width:6;stroke-linecap:round;stroke-linejoin:round;stroke-miterlimit:4;stroke-dasharray:none;stroke-dashoffset:0;stroke-opacity:1;marker:none;color-rendering:auto;image-rendering:auto;shape-rendering:auto;text-rendering:auto;enable-background:accumulate"
     d="m 200.0000000000004,700.0000000000004 100.0000000000001,0 0,100 -100.0000000000001,0 z"
     id="path4538"
     inkscape:connector-curvature="0" />
  <path
     inkscape:connector-curvature="0"
     id="path4542"
     d="m 300.0000000000005,700.0000000000004 100.0000000000001,0 0,100 -100.0000000000001,0 z"
     style="color:#000000;clip-rule:nonzero;display:inline;overflow:visible;visibility:visible;opacity:1;isolation:auto;mix-blend-mode:normal;color-interpolation:sRGB;color-interpolation-filters:linearRGB;solid-color:#000000;solid-opacity:1;fill:#1550ff;fill-opacity:1;fill-rule:nonzero;stroke:none;stroke-width:6;stroke-linecap:round;stroke-linejoin:round;stroke-miterlimit:4;stroke-dasharray:none;stroke-dashoffset:0;stroke-opacity:1;marker:none;color-rendering:auto;image-rendering:auto;shape-rendering:auto;text-rendering:auto;enable-background:accumulate" />
  <path
     style="color:#000000;clip-rule:nonzero;display:inline;overflow:visible;visibility:visible;opacity:1;isolation:auto;mix-blend-mode:normal;color-interpolation:sRGB;color-interpolation-filters:linearRGB;solid-color:#000000;solid-opacity:1;fill:#ff0064;fill-opacity:1;fill-rule:nonzero;stroke:none;stroke-width:6;stroke-linecap:round;stroke-linejoin:round;stroke-miterlimit:4;stroke-dasharray:none;stroke-dashoffset:0;stroke-opacity:1;marker:none;color-rendering:auto;image-rendering:auto;shape-rendering:auto;text-rendering:auto;enable-background:accumulate"
     d="m 400.0000000000006,700.0000000000004 100.0000000000001,0 0,100 -100.0000000000001,0 z"
     id="path6717"
     inkscape:connector-curvature="0" />
  <path
     inkscape:connector-curvature="0"
     id="path6739"
     d="m 500.0000000000007,700.0000000000004 100.0000000000002,0 0,100 -100.0000000000002,0 z"
     style="color:#000000;clip-rule:nonzero;display:inline;overflow:visible;visibility:visible;opacity:1;isolation:auto;mix-blend-mode:normal;color-interpolation:sRGB;color-interpolation-filters:linearRGB;solid-color:#000000;solid-opacity:1;fill:#000000;fill-opacity:1;fill-rule:nonzero;stroke:none;stroke-width:6;stroke-linecap:round;stroke-linejoin:round;stroke-miterlimit:4;stroke-dasharray:none;stroke-dashoffset:0;stroke-opacity:1;marker:none;color-rendering:auto;image-rendering:auto;shape-rendering:auto;text-rendering:auto;enable-background:accumulate" />
  <path
     sodipodi:nodetypes="ccccc"
     inkscape:connector-curvature="0"
     id="path6954"
     d="m 600.0000000000009,700.0000000000004 100,0 0,100 -100,0 z"
     style="color:#000000;clip-rule:nonzero;display:inline;overflow:visible;visibility:visible;opacity:1;isolation:auto;mix-blend-mode:normal;color-interpolation:sRGB;color-interpolation-filters:linearRGB;solid-color:#000000;solid-opacity:1;fill:url(#radialGradient4574);fill-opacity:1;fill-rule:nonzero;stroke:none;stroke-width:6;stroke-linecap:round;stroke-linejoin:round;stroke-miterlimit:4;stroke-dasharray:none;stroke-dashoffset:0;stroke-opacity:1;marker:none;color-rendering:auto;image-rendering:auto;shape-rendering:auto;text-rendering:auto;enable-background:accumulate" />
  <path
     style="color:#000000;clip-rule:nonzero;display:inline;overflow:visible;visibility:visible;opacity:1;isolation:auto;mix-blend-mode:normal;color-interpolation:sRGB;color-interpolation-filters:linearRGB;solid-color:#000000;solid-opacity:1;fill:url(#radialGradient4806);fill-opacity:1;fill-rule:nonzero;stroke:none;stroke-width:6;stroke-linecap:round;stroke-linejoin:round;stroke-miterlimit:4;stroke-dasharray:none;stroke-dashoffset:0;stroke-opacity:1;marker:none;color-rendering:auto;image-rendering:auto;shape-rendering:auto;text-rendering:auto;enable-background:accumulate"
     d="m 700.0000000000009,700.0000000000004 100,0 0,100 -100,0 z"
     id="path6981"
     inkscape:connector-curvature="0"
     sodipodi:nodetypes="ccccc" />
  <g
     id="g7169"
     transform="translate(3015.999980443632,3159.999978872431)">
    <path
       style="color:#000000;clip-rule:nonzero;display:inline;overflow:visible;visibility:visible;opacity:1;isolation:auto;mix-blend-mode:normal;color-interpolation:sRGB;color-interpolation-filters:linearRGB;solid-color:#000000;solid-opacity:1;fill:#000000;fill-opacity:1;fill-rule:nonzero;stroke:none;stroke-width:6;stroke-linecap:round;stroke-linejoin:round;stroke-miterlimit:4;stroke-dasharray:none;stroke-dashoffset:0;stroke-opacity:1;marker:none;color-rendering:auto;image-rendering:auto;shape-rendering:auto;text-rendering:auto;enable-background:accumulate"
       d="m 11938.81786409729,-8535.279499945012 1400,0 0,1399.999999999997 -1400,0 z"
       id="path7167"
       inkscape:connector-curvature="0" />
    <use
       mask="url(#mask7163)"
       height="100%"
       width="100%"
       transform="matrix(14,0,0,14,2138.817864097278,-18335.27949994502)"
       id="use7159"
       xlink:href="#path6981"
       y="0"
       x="0" />
  </g>
  <g
     id="g7183"
     transform="translate(4031.999972344263,5471.999962467217)">
    <use
       x="0"
       y="0"
       xlink:href="#path6717"
       id="use7181"
       transform="matrix(14,0,0,14,3898.817881836493,-20551.27937804938)"
       width="100%"
       height="100%" />
    <use
       mask="url(#mask7177)"
       x="0"
       y="0"
       xlink:href="#path6954"
       id="use7173"
       transform="matrix(14,0,0,14,1098.817881836489,-20551.27937804938)"
       width="100%"
       height="100%" />
  </g>
</svg>
